<?xml version="1.0" encoding="UTF-8" standalone="no"?>
<!-- Created with Inkscape (http://www.inkscape.org/) -->

<svg
   xmlns:dc="http://purl.org/dc/elements/1.1/"
   xmlns:cc="http://creativecommons.org/ns#"
   xmlns:rdf="http://www.w3.org/1999/02/22-rdf-syntax-ns#"
   xmlns:svg="http://www.w3.org/2000/svg"
   xmlns="http://www.w3.org/2000/svg"
   xmlns:sodipodi="http://sodipodi.sourceforge.net/DTD/sodipodi-0.dtd"
   xmlns:inkscape="http://www.inkscape.org/namespaces/inkscape"
   width="210mm"
   height="297mm"
   viewBox="0 0 210 297"
   version="1.1"
   id="svg8"
   inkscape:version="0.92.3 (2405546, 2018-03-11)"
   sodipodi:docname="conductor logo.svg"
   inkscape:export-filename="C:\Phyrebyrd\Hackathons\HackTheNorth\Director\director logo.png"
   inkscape:export-xdpi="96"
   inkscape:export-ydpi="96">
  <defs
     id="defs2">
    <clipPath
       clipPathUnits="userSpaceOnUse"
       id="clipPath856">
      <path
         style="fill:#ffffff;fill-opacity:1;stroke:#000000;stroke-width:0.26458332px;stroke-linecap:butt;stroke-linejoin:miter;stroke-opacity:1"
         d="m 154.82849,251.50111 -0.0945,-5.05543 -0.75595,-0.94494 -0.0945,-7.03981 1.08669,-7.65401 -0.0472,-7.41779 0.99219,-7.27604 0.37797,-10.58333 0.47247,-12.09524 -0.28348,-3.1183 -3.30729,-11.90625 -3.77976,-5.66964 -3.96875,-4.34673 -4.91369,-3.77976 -4.06325,-2.55134 -2.36235,-2.07887 0.66146,-0.37798 -1.03944,-1.32291 -2.26785,-4.34673 -3.40179,0.85045 -0.85044,-1.03944 -0.85045,-1.13393 L 127,151.57366 h 0.47247 l -0.0945,-2.07887 -0.37797,-2.45685 -0.18899,-1.70089 -0.66146,-0.94494 -0.47247,-2.07887 0.28348,-2.83482 -0.28348,-3.40178 -0.94494,-4.9137 -2.07887,-4.81919 -1.5119,-2.83482 -3.11831,-1.88988 -2.64583,-1.13393 v -0.66146 l -2.26786,-0.18899 -1.98437,-0.47247 -2.64583,-0.66146 -3.40179,0.37798 -4.15774,0.94494 -3.590772,0.75595 -3.590774,2.07887 -3.023809,2.26786 -1.039434,1.5119 -0.188987,1.03944 -1.889884,1.13392 -2.173362,1.7009 -2.078868,2.36235 -2.173364,3.30729 -0.661461,4.25223 0.472474,2.17337 0.944941,1.13392 1.606399,1.51191 1.984375,0.0945 0.28348,-0.37797 -1.606396,-0.18899 -1.039437,-0.94494 -0.377976,-0.66146 -0.283485,-0.85045 v -0.47247 l 0.755957,-0.56696 0.377973,0.37798 1.039437,1.41741 0.944938,0.85044 0.566965,1.51191 1.13393,1.5119 1.133925,1.51191 0.283485,0.66146 -0.377976,1.03943 0.377976,0.56697 0.944941,1.03943 0.188989,0.28348 -1.417415,4.91369 0.283485,0.85045 0.472472,0.75595 1.228418,0.75595 0.472474,-0.28348 0.472469,2.55134 0.377976,1.13393 0.566965,1.70089 0.944941,1.6064 1.039434,1.22842 0.755952,0.94494 0.377978,1.98438 0.850445,1.5119 1.039434,0.66146 h 1.606397 v -0.0945 l 0.944941,0.47247 0.944944,0.18899 1.79538,0.37797 c 0,0 0.0945,0 0.56697,-0.0945 0.47247,-0.0945 1.03943,-0.56697 1.03943,-0.56697 h 0.28349 l -0.75596,2.26786 -0.18899,1.13393 -0.47246,0.66146 -0.56697,0.94494 -1.03943,0.0945 v 0.75595 c 0,0 1.13392,0.47247 1.03943,0.85045 -0.0945,0.37798 1.03943,0.85045 1.03943,0.85045 l -4.819189,6.80357 -1.039437,2.74033 -0.566965,2.74032 v 3.02381 l -2.362348,-1.41741 -1.606399,-1.13393 -1.700893,-0.56696 -1.606399,-0.56697 -1.511906,-1.03943 -3.118302,-1.51191 -0.472472,0.0945 -6.425594,-3.68527 -4.630208,-3.40178 -1.322917,-5.29167 0.09449,-3.02381 -1.41741,-2.36235 -1.228421,-1.51191 -0.755954,-0.37797 c 0,0 -1.228421,-1.32292 -1.511906,-1.7009 -0.28348,-0.37797 -1.41741,-1.03943 -1.41741,-1.03943 l -1.228421,-1.88988 -0.661458,-0.37798 -2.456844,0.0945 -1.322917,0.0945 -2.456849,0.0945 -1.984375,0.56696 -1.039432,0.66146 -1.322916,0.28348 -0.188987,1.13393 0.377976,0.37797 -1.322917,1.03944 0.283483,0.94494 -0.755957,0.37798 -0.188984,0.66145 0.09449,0.75596 v 0 l -0.661456,0.75595 -0.566965,0.75595 0.472472,0.94494 1.417407,1.41741 2.173367,1.98438 1.795383,2.17336 2.645836,1.98438 1.13393,3.02381 0.850445,1.98437 1.984375,2.17336 3.212796,1.79539 -0.755952,2.26786 0.566963,0.56696 0.0945,3.02381 1.889879,0.37798 h 1.13393 l 1.41741,-0.94494 0.850448,-0.0945 1.22842,0.75596 1.039434,0.94494 0.850448,0.75595 0.755952,1.03943 1.606399,1.32292 0.850447,1.88988 0.661459,0.75595 h 0.377976 l 0.283482,0.28348 c 0,0 -0.377976,1.13393 -0.755954,1.6064 -0.377976,0.47247 -0.472469,1.41741 -0.472469,1.41741 l -0.472469,1.32292 -0.377979,1.32292 1.795389,0.85044 7.276041,3.40179 4.913691,1.88988 -0.755954,3.2128 -8.409969,1.5119 -19.465774,-5.48065 c 0,0 -11.811757,-20.78869 -12.000744,-21.16667 C 50.365327,193.05654 5.1971726,185.875 5.1971726,185.875 l 5.0081844,16.91443 52.335714,51.98198 z"
         id="path858"
         inkscape:connector-curvature="0" />
    </clipPath>
    <clipPath
       clipPathUnits="userSpaceOnUse"
       id="clipPath871">
      <path
         style="fill:#fffefe;fill-opacity:1;stroke:#000000;stroke-width:0.26458332px;stroke-linecap:butt;stroke-linejoin:miter;stroke-opacity:1"
         d="m 90.430801,218.56995 -6.174082,1.32278 -2.138158,1.31965 -0.567952,0.23386 c 0,0 -0.334079,-0.11693 -0.81851,-0.30068 -0.484428,-0.18375 -1.00226,-0.4009 -1.33635,-0.53454 -0.334078,-0.13363 -0.668168,-0.33408 -1.01896,-0.53454 -0.35079,-0.20045 -0.70158,-0.43431 -0.851919,-0.41761 -0.150339,0.0167 -0.701585,-0.0668 -0.985562,0.0334 -0.283972,0.10023 -0.952146,0.48443 -0.952146,0.48443 0,0 0.434314,0.30069 -0.116932,0.23386 -0.551241,-0.0668 -3.032633,-0.60399 -3.032633,-0.60399 l -1.133933,-0.37797 -0.56696,-0.18899 c 0,0 -0.425225,-0.42523 -0.614214,-0.51972 -0.188987,-0.0945 -0.944938,0.0472 -1.370161,-0.14174 -0.425225,-0.18899 0.992188,0.37797 -0.944943,-0.28348 -1.937126,-0.66146 -2.504091,-1.18118 -2.504091,-1.18118 l -2.645833,-0.8032 c 0,0 -0.661459,-0.23624 -1.181174,-0.51972 -0.519719,-0.28348 -1.700898,-0.8032 -1.700898,-0.8032 l -0.850445,-1.5119 c 0,0 -0.614209,-1.18118 -0.661456,-1.37017 -0.04725,-0.18898 -0.708705,-1.37016 -0.708705,-1.37016 l -0.614211,-1.65364 c 0,0 -0.708705,-1.03944 -0.897695,-1.18118 -0.188986,-0.14174 -0.897694,-1.32292 -0.897694,-1.32292 l -0.566962,-1.18117 -0.614212,-0.70871 -0.977826,-0.69733 -1.135896,-0.46771 -2.00452,-0.66819 -1.202714,-1.00226 -1.536801,-0.80181 c 0,0 -0.668173,-0.4009 -1.00226,-0.53454 -0.334086,-0.13363 -1.670433,-0.20045 -1.670433,-0.20045 l -0.935445,0.60136 -0.400905,0.33409 c 0,0 -0.734989,0 -1.00226,0 -0.267269,0 -1.403165,0.66817 -1.403165,0.66817 l -0.400905,0.60136 -0.601355,0.66817 -1.536801,0.3341 -0.534537,0.66816 H 37.2841 l -17.907058,-9.82216 -9.7553386,-5.14493 -0.7349914,0.46772 0.4677225,0.86864 27.0610385,14.63299 v 0.60136 l -2.873148,-0.26727 -0.467722,0.60136 0.601358,1.60361 0.868625,0.73499 1.469982,0.66818 0.935445,0.33408 2.138156,1.00226 2.739512,2.07134 2.539061,4.07586 2.204974,3.20724 2.138156,2.00453 2.472243,2.07133 1.00226,0.53454 -0.133636,4.67721 1.937705,1.06908 -0.601355,1.20271 0.601355,0.86863 c 0,0 0.734992,0.40091 1.069076,0.26727 0.334089,-0.13364 1.135898,-0.4009 1.135898,-0.4009 l 0.334087,-0.735 2.605879,2.40543 2.204974,2.13816 1.870884,1.33635 c 0,0 0.06682,1.80406 0.334087,2.13815 0.267269,0.33409 0.935445,1.40317 0.935445,1.40317 0,0 0.734991,0.46772 1.202711,0.46772 0.46772,0 3.274052,-0.0668 3.274052,-0.0668 l 3.674957,0.46772 2.939965,0.20045 h 2.80633 l 3.87541,0.53454 2.07133,0.40091 3.27406,0.26727 c 0,0 -0.267269,3.60813 -0.334089,3.87541 -0.0668,0.26726 -1.40317,3.34086 -1.40317,3.34086 l -0.133631,1.80407 75.629791,6.78116 13.41816,-112.63691 -59.34226,-51.215775 -81.453873,46.302085 12.473215,47.436 z"
         id="path873"
         inkscape:connector-curvature="0" />
    </clipPath>
    <clipPath
       clipPathUnits="userSpaceOnUse"
       id="clipPath896">
      <path
         style="fill:#fff8f8;fill-opacity:1;stroke:#000000;stroke-width:0.26458332px;stroke-linecap:butt;stroke-linejoin:miter;stroke-opacity:1"
         d="m 154.50567,251.55658 -0.18898,-1.51191 0.47247,-1.60639 v -1.03943 l 0.0945,-1.03944 -0.42522,-0.61421 -0.56697,0.14174 -0.0472,-2.50409 c 0,0 -0.0945,-1.32292 -0.0945,-1.5119 0,-0.189 0,-1.51192 0,-1.51192 0,0 -0.0945,-0.99218 0,-1.22842 0.0945,-0.23623 0.37798,-0.75595 0.37798,-1.13393 0,-0.37797 0.23623,-3.1183 0.23623,-3.1183 l 0.23624,-1.98437 0.33073,-2.50409 c 0,0 0.0945,-2.12612 0.0945,-2.40961 0,-0.28347 0,-2.36235 0,-2.59858 0,-0.23623 0,-1.37017 0,-2.2206 0,-0.85045 0.75595,-4.9137 0.75595,-4.9137 l 0.57133,-6.10551 c 0,0 -0.26727,-7.48355 -0.13363,-8.15172 0.13363,-0.66818 0.13363,-7.34991 0.13363,-7.34991 l 0.4009,-4.00905 -1.46998,-6.41446 -1.87088,-7.34992 -3.47451,-5.87992 -3.34087,-3.74178 -3.8754,-2.80633 -5.61267,-4.00904 -3.34086,-2.67269 1.06908,-0.13364 -1.33635,-1.33635 -2.00452,-4.00904 -2.92955,0.75284 -1.13393,-0.75595 -1.03943,-1.79538 0.75595,-1.03944 0.18899,-4.53571 -0.18899,-1.51191 -1.41741,-1.5119 -0.56697,-3.40179 0.0945,-2.64583 -0.28348,-4.15774 -0.47248,-3.30729 -0.75595,-3.49628 -1.6064,-2.36235 -3.59077,-2.45685 -2.74033,-1.79538 -2.36235,-0.75596 -4.34672,-0.75595 h -3.59078 l -3.30729,0.66146 -3.68527,1.22842 -3.68527,1.79539 c 0,0 -1.70089,0.66146 -2.173359,1.03943 -0.472472,0.37798 -1.70089,1.7009 -1.70089,1.7009 l -1.70089,1.88988 -1.039442,0.75595 -2.456839,1.88988 -1.13393,1.41741 c 0,0 -1.889879,2.26786 -2.173369,2.74033 -0.28348,0.47247 -1.795381,3.87425 -1.795381,3.87425 l 0.188979,3.49629 1.13393,1.98437 1.511911,1.32292 1.511901,0.85044 0.661458,-0.75595 -0.85045,-0.0945 -1.039429,-0.85045 -0.944941,-1.13393 0.0945,-0.75595 0.472469,-0.56696 2.267861,2.07887 0.85045,2.45684 1.606399,2.17336 0.850442,0.75596 v 0.85044 l -0.472472,0.66146 1.133931,1.70089 -1.039429,5.00819 0.566959,1.32292 0.944941,0.75595 0.755949,-0.28348 0.566971,2.92931 0.85045,2.26786 1.322909,2.45684 1.22842,1.13393 0.566971,1.41741 0.472469,1.7009 1.41741,1.32291 1.13393,0.47247 h 1.5119 l 1.228431,0.66146 h 1.98437 l 1.41741,-0.56696 -0.18899,1.88988 -0.66146,1.6064 -0.66145,1.4174 -1.32292,0.37797 -0.28348,0.56698 c 0,0 0.56696,0.18898 0.85044,0.66145 0.28349,0.47248 1.32292,1.03944 1.32292,1.03944 l -3.1183,4.15773 -1.511912,2.55134 -1.322908,1.6064 -0.472472,6.70908 -2.17337,-1.13393 -2.92931,-1.51191 c 0,0 -2.83482,-0.94494 -3.3073,-1.41741 -0.472458,-0.47246 -4.157728,-1.98437 -4.157728,-1.98437 l -0.0945,0.18899 -8.882438,-5.19717 -1.322916,-1.22843 c 0,0 -0.566963,0.18899 -0.661459,-0.56696 -0.09449,-0.75595 -0.850445,-5.00818 -0.850445,-5.00818 l -1.039434,-5.76414 -2.55134,-1.79538 -1.133927,-0.75596 -3.118305,-4.06324 -6.142112,-0.37798 -5.291667,1.88988 v 1.22843 l 0.28348,0.28348 -1.228421,0.94494 -0.188989,0.85045 -0.472469,1.03943 0.283483,0.94494 -0.850448,0.94494 -0.377976,0.37798 0.661459,1.32291 1.41741,1.41741 5.480655,5.38616 1.41741,1.70089 1.511906,3.77977 2.078869,1.70088 2.929315,2.26787 -0.755954,2.26786 0.566965,0.18898 -0.09449,3.02381 1.133927,0.66145 c 0,0 1.795388,0.56697 2.078871,0.18899 0.28348,-0.37797 1.606397,-0.85044 1.606397,-0.85044 l 2.362353,0.47247 3.496278,4.06324 0.755952,0.75596 0.850442,1.70089 0.566968,0.56697 -1.322919,5.29166 c 0,0 12.284231,5.48066 12.378721,5.95312 0.0945,0.47247 0.566968,1.84264 0.566968,1.84264 l -0.24415,1.88167 -6.174078,1.32277 -2.706111,1.55351 c 0,0 -2.214951,-0.74196 -2.403941,-0.8837 -0.188978,-0.14174 -1.5119,-0.89769 -1.5119,-0.89769 l -1.086681,-0.0945 -0.960924,0.60634 v 0 l -4.850458,-0.93709 -0.755955,-0.80318 -1.55915,0.18898 -3.118305,-1.51191 -5.527905,-2.12612 -2.834817,-5.90588 -2.362351,-3.68527 -1.592037,-1.40604 -1.135896,-0.46771 -2.004521,-0.66818 -1.202714,-1.00226 -2.569297,-1.41673 -1.640197,-0.12008 -1.33635,0.93545 -1.559168,0.17682 -1.247161,1.09271 -0.601356,0.66817 -1.5368,0.3341 -0.868625,0.66816 -27.6623962,-14.96709 -0.7349887,0.46772 0.4677199,0.86866 27.061038,14.63298 v 0.60135 l -2.873147,-0.26727 -0.467723,0.60137 0.601359,1.6036 v 0 l 5.412208,2.73951 2.739511,2.07134 4.744035,7.2831 c 0,0 2.195121,2.15404 2.478604,2.34303 0.283482,0.18899 3.134055,2.26738 3.134055,2.26738 l -0.133635,4.6772 1.937705,1.06908 -0.601356,1.20271 0.601356,0.86863 0.82601,0.54558 1.378964,-0.6792 0.334086,-0.73501 6.681738,5.87994 0.25142,2.1961 1.018111,1.34522 1.060757,0.49741 3.416007,-0.0965 3.860035,0.47447 2.754887,0.1937 h 2.806329 l 4.4079,0.56225 1.538841,0.3732 3.27406,0.26727 -0.27718,3.848 -1.460082,3.36828 -0.133628,1.80406 z"
         id="path898"
         inkscape:connector-curvature="0" />
    </clipPath>
  </defs>
  <sodipodi:namedview
     id="base"
     pagecolor="#ffffff"
     bordercolor="#666666"
     borderopacity="1.0"
     inkscape:pageopacity="0.0"
     inkscape:pageshadow="2"
     inkscape:zoom="0.49497475"
     inkscape:cx="-1010.2165"
     inkscape:cy="780.49177"
     inkscape:document-units="mm"
     inkscape:current-layer="layer1"
     showgrid="false"
     inkscape:window-width="2736"
     inkscape:window-height="1699"
     inkscape:window-x="-13"
     inkscape:window-y="-13"
     inkscape:window-maximized="1" />
  <metadata
     id="metadata5">
    <rdf:RDF>
      <cc:Work
         rdf:about="">
        <dc:format>image/svg+xml</dc:format>
        <dc:type
           rdf:resource="http://purl.org/dc/dcmitype/StillImage" />
        <dc:title></dc:title>
      </cc:Work>
    </rdf:RDF>
  </metadata>
  <g
     inkscape:label="Layer 1"
     inkscape:groupmode="layer"
     id="layer1">
    <path
       style="fill:#000000;fill-opacity:1;stroke:#000000;stroke-width:0.26458332px;stroke-linecap:butt;stroke-linejoin:miter;stroke-opacity:1"
       d="m 177.51172,210.59546 -0.18898,-1.51191 0.47247,-1.60639 v -1.03945 l 0.0945,-1.03942 -0.42522,-0.61421 -0.56697,0.14174 -0.0472,-2.50409 c 0,0 -0.0945,-1.32292 -0.0945,-1.51192 0,-0.18898 0,-1.5119 0,-1.5119 0,0 -0.0945,-0.99218 0,-1.22842 0.0945,-0.23623 0.37798,-0.75595 0.37798,-1.13393 0,-0.37797 0.23623,-3.1183 0.23623,-3.1183 l 0.23624,-1.98437 0.33073,-2.50411 c 0,0 0.0945,-2.1261 0.0945,-2.4096 0,-0.28348 0,-2.36234 0,-2.59857 0,-0.23625 0,-1.37018 0,-2.22061 0,-0.85046 0.75595,-4.91369 0.75595,-4.91369 l 0.57133,-6.10551 c 0,0 -0.26727,-7.48355 -0.13363,-8.15172 0.13363,-0.66818 0.13363,-7.34991 0.13363,-7.34991 l 0.4009,-4.00905 -1.46998,-6.41447 -1.87088,-7.34991 -3.47451,-5.87993 -3.34087,-3.74177 -3.8754,-2.80633 -5.61267,-4.00905 -3.34086,-2.67269 1.06908,-0.13364 -1.33635,-1.33634 -2.00452,-4.00904 -2.92955,0.75284 -1.13393,-0.75595 -1.03943,-1.79539 0.75595,-1.03943 0.18899,-4.53572 -0.18899,-1.51191 -1.41741,-1.5119 -0.56697,-3.401787 0.0945,-2.64583 -0.28348,-4.15774 -0.47248,-3.30729 -0.75595,-3.49628 -1.6064,-2.36235 -3.59077,-2.45684 -2.74033,-1.79539 -2.36235,-0.75595 -4.34672,-0.75596 h -3.59078 l -3.3073,0.66146 -3.68527,1.22842 -3.68527,1.79539 c 0,0 -1.70089,0.66146 -2.17335,1.03944 -0.47247,0.37797 -1.70089,1.70089 -1.70089,1.70089 l -1.70089,1.88988 -1.03944,0.75595 -2.45684,1.88988 -1.13393,1.41741 c 0,0 -1.88988,2.26786 -2.17337,2.74033 -0.28348,0.47247 -1.79538,3.87426 -1.79538,3.87426 l 0.18898,3.496277 1.13393,1.98437 1.51191,1.32292 1.5119,0.85044 0.66146,-0.75595 -0.85045,-0.0945 -1.03944,-0.85045 -0.94493,-1.13392 0.0945,-0.75596 0.47247,-0.56696 2.26786,2.07887 0.85045,2.45684 1.6064,2.17337 0.85044,0.75595 v 0.85045 l -0.47247,0.66146 1.13393,1.70089 -1.03943,5.00818 0.56696,1.32292 0.94494,0.75595 0.75595,-0.28348 0.56697,2.92931 0.85045,2.26786 1.32291,2.45685 1.22842,1.13392 0.56697,1.41741 0.47247,1.7009 1.41741,1.32291 1.13393,0.47247 h 1.5119 l 1.22843,0.66146 h 1.98437 l 1.41741,-0.56696 -0.18899,1.88988 -0.66146,1.6064 -0.66145,1.41741 -1.32292,0.37797 -0.28348,0.56697 c 0,0 0.56696,0.18899 0.85044,0.66146 0.28349,0.47247 1.32292,1.03943 1.32292,1.03943 l -3.1183,4.15774 -1.51191,2.55134 -1.32291,1.6064 -0.47247,6.70908 -2.17337,-1.13393 -2.92931,-1.51191 c 0,0 -2.83482,-0.94494 -3.3073,-1.41741 -0.47246,-0.47247 -4.15773,-1.98437 -4.15773,-1.98437 l -0.0945,0.18899 -8.882439,-5.19718 -1.32292,-1.22842 c 0,0 -0.56696,0.18899 -0.66146,-0.56696 -0.0945,-0.75596 -0.85044,-5.00819 -0.85044,-5.00819 l -1.03944,-5.76414 -2.55134,-1.79538 -1.13393,-0.75596 -3.118297,-4.06324 -6.142112,-0.37798 -5.29167,1.88989 v 1.22842 l 0.28348,0.28348 -1.22842,0.94494 -0.18899,0.85045 -0.47247,1.03943 0.28348,0.94494 -0.85044,0.94494 -0.37798,0.37798 0.66146,1.32292 1.41741,1.41741 5.48065,5.38616 1.41741,1.70089 1.51191,3.77976 2.078872,1.70089 2.929307,2.26786 -0.75595,2.26786 0.56697,0.18899 -0.0945,3.02381 1.13392,0.66145 c 0,0 1.79539,0.56697 2.07887,0.18899 0.28348,-0.37797 1.6064,-0.85044 1.6064,-0.85044 l 2.36235,0.47247 3.49628,4.06324 0.755959,0.75595 0.85044,1.7009 0.56697,0.56696 -1.32293,5.29167 c 0,0 12.28424,5.48065 12.37873,5.95312 0.0945,0.47247 0.56697,1.84264 0.56697,1.84264 l -0.24415,1.88167 -6.17408,1.32276 -2.70611,1.55352 c 0,0 -2.21495,-0.74196 -2.40395,-0.8837 -0.18897,-0.14174 -1.51189,-0.89769 -1.51189,-0.89769 l -1.086689,-0.0945 -0.96092,0.60634 v 0 l -4.85046,-0.93709 -0.75595,-0.80318 -1.55915,0.18898 -3.11831,-1.51191 -5.527899,-2.12612 -2.83482,-5.90588 -2.36235,-3.68527 -1.59204,-1.40604 -1.1359,-0.46771 -2.004519,-0.66818 -1.20271,-1.00226 -2.5693,-1.41673 -1.64019,-0.12008 -1.33635,0.93545 -1.55917,0.17682 -1.24716,1.09271 -0.60136,0.66817 -1.5368,0.3341 -0.86862,0.66816 -27.6624,-14.96709 -0.73499,0.46772 0.46772,0.86865 27.06104,14.63299 v 0.60135 l -2.87315,-0.26727 -0.46772,0.60137 0.60136,1.6036 v 0 l 5.41221,2.73951 2.73951,2.07134 4.74403,7.2831 c 0,0 2.19513,2.15404 2.47861,2.34303 0.28348,0.18899 3.134049,2.26738 3.134049,2.26738 l -0.13363,4.6772 1.9377,1.06907 -0.60135,1.20272 0.60135,0.86863 0.82601,0.54558 1.37896,-0.6792 0.33409,-0.73501 6.681742,5.87994 0.25142,2.1961 1.01811,1.34522 1.060757,0.49741 3.416,-0.0965 3.86004,0.47447 2.75489,0.1937 h 2.806329 l 4.4079,0.56225 1.53884,0.3732 3.27406,0.26727 -0.27718,3.848 -1.46008,3.36826 -0.13363,1.80408 z"
       id="path875-0"
       inkscape:connector-curvature="0" />
  </g>
</svg>
